<?xml version="1.0" encoding="UTF-8"?>
<svg id="SVG" xmlns="http://www.w3.org/2000/svg" version="1.1" viewBox="0 0 24 24">
  <!-- Generator: Adobe Illustrator 29.6.1, SVG Export Plug-In . SVG Version: 2.1.1 Build 9)  -->
  <defs>
    <style>
      .st0 {
        fill: none;
      }
    </style>
  </defs>
  <rect class="st0" width="24" height="24"/>
  <path d="M19.6,8.07H6.86l3.2-1.44-.09-.2,3.75-1.69-.08-.17,2.76-1.24.17.38,1.06-.48-.5-1.11-1.06.48.17.38-2.76,1.24-.08-.17-3.75,1.69-.09-.2-5.96,2.69c-.93.33-1.6,1.22-1.6,2.26v9.22c0,1.33,1.07,2.4,2.4,2.4h15.2c1.33,0,2.4-1.07,2.4-2.4v-9.22c0-1.33-1.07-2.4-2.4-2.4ZM5.31,19.7h-1.1v-6.15h1.1v6.15h0ZM7.35,19.08h-1.1v-4.9h1.1v4.9ZM9.39,20.26h-1.1v-7.28h1.1v7.28ZM11.42,18.46h-1.1v-3.66h1.1v3.66ZM19.79,19.86c0,.22-.18.4-.4.4h-6.48c-.22,0-.4-.18-.4-.4v-6.48c0-.22.18-.4.4-.4h6.48c.22,0,.4.18.4.4v6.48ZM19.79,11.55c0,.22-.18.4-.4.4h-1.46v-1.36h-1.1v1.36H4.61c-.22,0-.4-.18-.4-.4v-.83c0-.22.18-.4.4-.4h14.78c.22,0,.4.18.4.4v.83h0ZM15.37,18.46h1.45v1.2h-1.45v-1.2ZM18.36,15.24c0,.25-.05.48-.15.69-.1.21-.23.41-.4.58s-.35.34-.55.48c-.11.08-.2.16-.26.25-.06.08-.1.18-.12.29-.02.11-.03.24-.03.38h-1.47c0-.2.02-.38.05-.52.03-.14.08-.27.15-.38.07-.11.16-.22.28-.33s.27-.23.45-.36c.11-.08.21-.18.3-.28.09-.11.16-.23.21-.35.05-.13.08-.26.08-.4,0-.21-.06-.37-.17-.49-.12-.12-.28-.18-.48-.18-.17,0-.32.05-.44.14s-.19.24-.19.44h-1.44v-.02c-.01-.37.07-.68.24-.93.17-.25.42-.44.73-.58s.68-.2,1.09-.2c.67,0,1.19.16,1.57.48.38.32.57.75.57,1.29h0Z"/>
</svg>